<mxfile host="app.diagrams.net" modified="2023-10-03T15:13:05.630Z" agent="Mozilla/5.0 (Macintosh; Intel Mac OS X 10_15_7) AppleWebKit/537.36 (KHTML, like Gecko) Chrome/117.0.0.0 Safari/537.36" etag="RH3kdRyYo7nBMsNgjNQD" version="21.7.5" type="github">
  <diagram name="Page-1" id="4c6fRMDYLdpc-ziUmhtn">
    <mxGraphModel dx="718" dy="582" grid="1" gridSize="10" guides="1" tooltips="1" connect="1" arrows="1" fold="1" page="1" pageScale="1" pageWidth="827" pageHeight="2000" math="0" shadow="0">
      <root>
        <mxCell id="0" />
        <mxCell id="1" parent="0" />
        <mxCell id="moqSpHkvBmcnVh3FU-qE-1" value="" style="fillColor=#EFF0F3;strokeColor=none;dashed=0;verticalAlign=top;fontStyle=0;fontColor=#232F3D;whiteSpace=wrap;html=1;" parent="1" vertex="1">
          <mxGeometry x="160" y="710" width="480" height="340" as="geometry" />
        </mxCell>
        <mxCell id="moqSpHkvBmcnVh3FU-qE-2" value="" style="sketch=0;points=[[0,0,0],[0.25,0,0],[0.5,0,0],[0.75,0,0],[1,0,0],[0,1,0],[0.25,1,0],[0.5,1,0],[0.75,1,0],[1,1,0],[0,0.25,0],[0,0.5,0],[0,0.75,0],[1,0.25,0],[1,0.5,0],[1,0.75,0]];outlineConnect=0;fontColor=#232F3E;fillColor=#C925D1;strokeColor=#ffffff;dashed=0;verticalLabelPosition=bottom;verticalAlign=top;align=center;html=1;fontSize=12;fontStyle=0;aspect=fixed;shape=mxgraph.aws4.resourceIcon;resIcon=mxgraph.aws4.codepipeline;" parent="1" vertex="1">
          <mxGeometry x="120" y="680" width="78" height="78" as="geometry" />
        </mxCell>
        <mxCell id="moqSpHkvBmcnVh3FU-qE-3" value="CodePipeline" style="text;html=1;align=center;verticalAlign=middle;resizable=0;points=[];autosize=1;strokeColor=none;fillColor=none;" parent="1" vertex="1">
          <mxGeometry x="114" y="758" width="90" height="30" as="geometry" />
        </mxCell>
        <mxCell id="moqSpHkvBmcnVh3FU-qE-4" value="" style="fillColor=#EFF0F3;strokeColor=none;dashed=0;verticalAlign=top;fontStyle=0;fontColor=#232F3D;whiteSpace=wrap;html=1;" parent="1" vertex="1">
          <mxGeometry x="182" y="70" width="552" height="230" as="geometry" />
        </mxCell>
        <mxCell id="moqSpHkvBmcnVh3FU-qE-5" value="" style="sketch=0;points=[[0,0,0],[0.25,0,0],[0.5,0,0],[0.75,0,0],[1,0,0],[0,1,0],[0.25,1,0],[0.5,1,0],[0.75,1,0],[1,1,0],[0,0.25,0],[0,0.5,0],[0,0.75,0],[1,0.25,0],[1,0.5,0],[1,0.75,0]];outlineConnect=0;fontColor=#232F3E;fillColor=#C925D1;strokeColor=#ffffff;dashed=0;verticalLabelPosition=bottom;verticalAlign=top;align=center;html=1;fontSize=12;fontStyle=0;aspect=fixed;shape=mxgraph.aws4.resourceIcon;resIcon=mxgraph.aws4.codepipeline;" parent="1" vertex="1">
          <mxGeometry x="142" y="40" width="78" height="78" as="geometry" />
        </mxCell>
        <mxCell id="moqSpHkvBmcnVh3FU-qE-6" value="CodePipeline" style="text;html=1;align=center;verticalAlign=middle;resizable=0;points=[];autosize=1;strokeColor=none;fillColor=none;" parent="1" vertex="1">
          <mxGeometry x="136" y="118" width="90" height="30" as="geometry" />
        </mxCell>
        <mxCell id="moqSpHkvBmcnVh3FU-qE-7" value="" style="edgeStyle=orthogonalEdgeStyle;rounded=0;orthogonalLoop=1;jettySize=auto;html=1;" parent="1" source="moqSpHkvBmcnVh3FU-qE-8" target="moqSpHkvBmcnVh3FU-qE-11" edge="1">
          <mxGeometry relative="1" as="geometry" />
        </mxCell>
        <mxCell id="moqSpHkvBmcnVh3FU-qE-8" value="" style="sketch=0;outlineConnect=0;fontColor=#232F3E;gradientColor=none;fillColor=#232F3D;strokeColor=none;dashed=0;verticalLabelPosition=bottom;verticalAlign=top;align=center;html=1;fontSize=12;fontStyle=0;aspect=fixed;pointerEvents=1;shape=mxgraph.aws4.client;" parent="1" vertex="1">
          <mxGeometry x="64" y="160" width="78" height="76" as="geometry" />
        </mxCell>
        <mxCell id="moqSpHkvBmcnVh3FU-qE-9" value="自分のPC" style="text;html=1;align=center;verticalAlign=middle;resizable=0;points=[];autosize=1;strokeColor=none;fillColor=none;" parent="1" vertex="1">
          <mxGeometry x="63" y="236" width="80" height="30" as="geometry" />
        </mxCell>
        <mxCell id="moqSpHkvBmcnVh3FU-qE-10" value="" style="edgeStyle=orthogonalEdgeStyle;rounded=0;orthogonalLoop=1;jettySize=auto;html=1;" parent="1" source="moqSpHkvBmcnVh3FU-qE-11" target="moqSpHkvBmcnVh3FU-qE-13" edge="1">
          <mxGeometry relative="1" as="geometry" />
        </mxCell>
        <mxCell id="moqSpHkvBmcnVh3FU-qE-11" value="" style="sketch=0;points=[[0,0,0],[0.25,0,0],[0.5,0,0],[0.75,0,0],[1,0,0],[0,1,0],[0.25,1,0],[0.5,1,0],[0.75,1,0],[1,1,0],[0,0.25,0],[0,0.5,0],[0,0.75,0],[1,0.25,0],[1,0.5,0],[1,0.75,0]];outlineConnect=0;fontColor=#232F3E;fillColor=#C925D1;strokeColor=#ffffff;dashed=0;verticalLabelPosition=bottom;verticalAlign=top;align=center;html=1;fontSize=12;fontStyle=0;aspect=fixed;shape=mxgraph.aws4.resourceIcon;resIcon=mxgraph.aws4.codecommit;" parent="1" vertex="1">
          <mxGeometry x="234" y="160" width="78" height="78" as="geometry" />
        </mxCell>
        <mxCell id="moqSpHkvBmcnVh3FU-qE-12" value="" style="edgeStyle=orthogonalEdgeStyle;rounded=0;orthogonalLoop=1;jettySize=auto;html=1;entryX=0;entryY=0.5;entryDx=0;entryDy=0;entryPerimeter=0;" parent="1" source="moqSpHkvBmcnVh3FU-qE-13" target="moqSpHkvBmcnVh3FU-qE-15" edge="1">
          <mxGeometry relative="1" as="geometry" />
        </mxCell>
        <mxCell id="moqSpHkvBmcnVh3FU-qE-13" value="" style="sketch=0;points=[[0,0,0],[0.25,0,0],[0.5,0,0],[0.75,0,0],[1,0,0],[0,1,0],[0.25,1,0],[0.5,1,0],[0.75,1,0],[1,1,0],[0,0.25,0],[0,0.5,0],[0,0.75,0],[1,0.25,0],[1,0.5,0],[1,0.75,0]];outlineConnect=0;fontColor=#232F3E;fillColor=#C925D1;strokeColor=#ffffff;dashed=0;verticalLabelPosition=bottom;verticalAlign=top;align=center;html=1;fontSize=12;fontStyle=0;aspect=fixed;shape=mxgraph.aws4.resourceIcon;resIcon=mxgraph.aws4.codebuild;" parent="1" vertex="1">
          <mxGeometry x="414" y="160" width="78" height="78" as="geometry" />
        </mxCell>
        <mxCell id="moqSpHkvBmcnVh3FU-qE-14" style="edgeStyle=orthogonalEdgeStyle;rounded=0;orthogonalLoop=1;jettySize=auto;html=1;" parent="1" source="moqSpHkvBmcnVh3FU-qE-15" target="moqSpHkvBmcnVh3FU-qE-16" edge="1">
          <mxGeometry relative="1" as="geometry" />
        </mxCell>
        <mxCell id="moqSpHkvBmcnVh3FU-qE-15" value="" style="sketch=0;points=[[0,0,0],[0.25,0,0],[0.5,0,0],[0.75,0,0],[1,0,0],[0,1,0],[0.25,1,0],[0.5,1,0],[0.75,1,0],[1,1,0],[0,0.25,0],[0,0.5,0],[0,0.75,0],[1,0.25,0],[1,0.5,0],[1,0.75,0]];outlineConnect=0;fontColor=#232F3E;fillColor=#C925D1;strokeColor=#ffffff;dashed=0;verticalLabelPosition=bottom;verticalAlign=top;align=center;html=1;fontSize=12;fontStyle=0;aspect=fixed;shape=mxgraph.aws4.resourceIcon;resIcon=mxgraph.aws4.codedeploy;" parent="1" vertex="1">
          <mxGeometry x="604" y="160" width="78" height="78" as="geometry" />
        </mxCell>
        <mxCell id="moqSpHkvBmcnVh3FU-qE-16" value="" style="sketch=0;outlineConnect=0;fontColor=#232F3E;gradientColor=none;fillColor=#232F3D;strokeColor=none;dashed=0;verticalLabelPosition=bottom;verticalAlign=top;align=center;html=1;fontSize=12;fontStyle=0;aspect=fixed;pointerEvents=1;shape=mxgraph.aws4.traditional_server;" parent="1" vertex="1">
          <mxGeometry x="804" y="160" width="45" height="78" as="geometry" />
        </mxCell>
        <mxCell id="moqSpHkvBmcnVh3FU-qE-17" value="CodeCommit" style="text;html=1;align=center;verticalAlign=middle;resizable=0;points=[];autosize=1;strokeColor=none;fillColor=none;" parent="1" vertex="1">
          <mxGeometry x="229" y="238" width="90" height="30" as="geometry" />
        </mxCell>
        <mxCell id="moqSpHkvBmcnVh3FU-qE-18" value="CodeBuild" style="text;html=1;align=center;verticalAlign=middle;resizable=0;points=[];autosize=1;strokeColor=none;fillColor=none;" parent="1" vertex="1">
          <mxGeometry x="413" y="238" width="80" height="30" as="geometry" />
        </mxCell>
        <mxCell id="moqSpHkvBmcnVh3FU-qE-19" value="CodeDeploy" style="text;html=1;align=center;verticalAlign=middle;resizable=0;points=[];autosize=1;strokeColor=none;fillColor=none;" parent="1" vertex="1">
          <mxGeometry x="598" y="238" width="90" height="30" as="geometry" />
        </mxCell>
        <mxCell id="moqSpHkvBmcnVh3FU-qE-20" value="本番サーバー" style="text;html=1;align=center;verticalAlign=middle;resizable=0;points=[];autosize=1;strokeColor=none;fillColor=none;" parent="1" vertex="1">
          <mxGeometry x="784" y="238" width="90" height="30" as="geometry" />
        </mxCell>
        <mxCell id="moqSpHkvBmcnVh3FU-qE-21" value="&lt;font style=&quot;font-size: 24px;&quot;&gt;&lt;b&gt;1&lt;/b&gt;&lt;/font&gt;" style="text;html=1;align=center;verticalAlign=middle;resizable=0;points=[];autosize=1;strokeColor=none;fillColor=none;" parent="1" vertex="1">
          <mxGeometry x="161" y="160" width="40" height="40" as="geometry" />
        </mxCell>
        <mxCell id="moqSpHkvBmcnVh3FU-qE-22" value="&lt;span style=&quot;font-size: 24px;&quot;&gt;&lt;b&gt;2&lt;/b&gt;&lt;/span&gt;" style="text;html=1;align=center;verticalAlign=middle;resizable=0;points=[];autosize=1;strokeColor=none;fillColor=none;" parent="1" vertex="1">
          <mxGeometry x="344" y="160" width="40" height="40" as="geometry" />
        </mxCell>
        <mxCell id="moqSpHkvBmcnVh3FU-qE-23" value="&lt;span style=&quot;font-size: 24px;&quot;&gt;&lt;b&gt;3&lt;/b&gt;&lt;/span&gt;" style="text;html=1;align=center;verticalAlign=middle;resizable=0;points=[];autosize=1;strokeColor=none;fillColor=none;" parent="1" vertex="1">
          <mxGeometry x="524" y="160" width="40" height="40" as="geometry" />
        </mxCell>
        <mxCell id="moqSpHkvBmcnVh3FU-qE-24" value="&lt;span style=&quot;font-size: 24px;&quot;&gt;&lt;b&gt;4&lt;/b&gt;&lt;/span&gt;" style="text;html=1;align=center;verticalAlign=middle;resizable=0;points=[];autosize=1;strokeColor=none;fillColor=none;" parent="1" vertex="1">
          <mxGeometry x="724" y="160" width="40" height="40" as="geometry" />
        </mxCell>
        <mxCell id="moqSpHkvBmcnVh3FU-qE-25" value="" style="sketch=0;points=[[0,0,0],[0.25,0,0],[0.5,0,0],[0.75,0,0],[1,0,0],[0,1,0],[0.25,1,0],[0.5,1,0],[0.75,1,0],[1,1,0],[0,0.25,0],[0,0.5,0],[0,0.75,0],[1,0.25,0],[1,0.5,0],[1,0.75,0]];outlineConnect=0;fontColor=#232F3E;fillColor=#ED7100;strokeColor=#ffffff;dashed=0;verticalLabelPosition=bottom;verticalAlign=top;align=center;html=1;fontSize=12;fontStyle=0;aspect=fixed;shape=mxgraph.aws4.resourceIcon;resIcon=mxgraph.aws4.ecr;" parent="1" vertex="1">
          <mxGeometry x="223" y="466" width="78" height="78" as="geometry" />
        </mxCell>
        <mxCell id="moqSpHkvBmcnVh3FU-qE-26" value="" style="fillColor=#EFF0F3;strokeColor=none;dashed=0;verticalAlign=top;fontStyle=0;fontColor=#232F3D;whiteSpace=wrap;html=1;" parent="1" vertex="1">
          <mxGeometry x="342" y="390" width="482" height="230" as="geometry" />
        </mxCell>
        <mxCell id="moqSpHkvBmcnVh3FU-qE-27" value="" style="sketch=0;points=[[0,0,0],[0.25,0,0],[0.5,0,0],[0.75,0,0],[1,0,0],[0,1,0],[0.25,1,0],[0.5,1,0],[0.75,1,0],[1,1,0],[0,0.25,0],[0,0.5,0],[0,0.75,0],[1,0.25,0],[1,0.5,0],[1,0.75,0]];outlineConnect=0;fontColor=#232F3E;fillColor=#ED7100;strokeColor=#ffffff;dashed=0;verticalLabelPosition=bottom;verticalAlign=top;align=center;html=1;fontSize=12;fontStyle=0;aspect=fixed;shape=mxgraph.aws4.resourceIcon;resIcon=mxgraph.aws4.ecs;" parent="1" vertex="1">
          <mxGeometry x="308" y="350" width="78" height="78" as="geometry" />
        </mxCell>
        <mxCell id="moqSpHkvBmcnVh3FU-qE-28" value="ECR" style="text;html=1;align=center;verticalAlign=middle;resizable=0;points=[];autosize=1;strokeColor=none;fillColor=none;" parent="1" vertex="1">
          <mxGeometry x="239" y="544" width="50" height="30" as="geometry" />
        </mxCell>
        <mxCell id="moqSpHkvBmcnVh3FU-qE-29" value="" style="edgeStyle=orthogonalEdgeStyle;rounded=0;orthogonalLoop=1;jettySize=auto;html=1;" parent="1" source="moqSpHkvBmcnVh3FU-qE-30" target="moqSpHkvBmcnVh3FU-qE-25" edge="1">
          <mxGeometry relative="1" as="geometry" />
        </mxCell>
        <mxCell id="moqSpHkvBmcnVh3FU-qE-30" value="" style="sketch=0;outlineConnect=0;fontColor=#232F3E;gradientColor=none;fillColor=#232F3D;strokeColor=none;dashed=0;verticalLabelPosition=bottom;verticalAlign=top;align=center;html=1;fontSize=12;fontStyle=0;aspect=fixed;pointerEvents=1;shape=mxgraph.aws4.client;" parent="1" vertex="1">
          <mxGeometry x="64" y="466" width="78" height="76" as="geometry" />
        </mxCell>
        <mxCell id="moqSpHkvBmcnVh3FU-qE-31" value="自分のPC" style="text;html=1;align=center;verticalAlign=middle;resizable=0;points=[];autosize=1;strokeColor=none;fillColor=none;" parent="1" vertex="1">
          <mxGeometry x="64" y="544" width="80" height="30" as="geometry" />
        </mxCell>
        <mxCell id="moqSpHkvBmcnVh3FU-qE-32" value="ECS" style="text;html=1;align=center;verticalAlign=middle;resizable=0;points=[];autosize=1;strokeColor=none;fillColor=none;" parent="1" vertex="1">
          <mxGeometry x="322" y="428" width="50" height="30" as="geometry" />
        </mxCell>
        <mxCell id="moqSpHkvBmcnVh3FU-qE-33" value="" style="edgeStyle=orthogonalEdgeStyle;rounded=0;orthogonalLoop=1;jettySize=auto;html=1;" parent="1" source="moqSpHkvBmcnVh3FU-qE-34" target="moqSpHkvBmcnVh3FU-qE-38" edge="1">
          <mxGeometry relative="1" as="geometry" />
        </mxCell>
        <mxCell id="moqSpHkvBmcnVh3FU-qE-34" value="" style="sketch=0;outlineConnect=0;fontColor=#232F3E;gradientColor=none;fillColor=#ED7100;strokeColor=none;dashed=0;verticalLabelPosition=bottom;verticalAlign=top;align=center;html=1;fontSize=12;fontStyle=0;aspect=fixed;pointerEvents=1;shape=mxgraph.aws4.ecs_task;" parent="1" vertex="1">
          <mxGeometry x="394" y="481" width="37" height="48" as="geometry" />
        </mxCell>
        <mxCell id="moqSpHkvBmcnVh3FU-qE-35" value="" style="edgeStyle=orthogonalEdgeStyle;rounded=0;orthogonalLoop=1;jettySize=auto;html=1;" parent="1" source="moqSpHkvBmcnVh3FU-qE-36" target="moqSpHkvBmcnVh3FU-qE-42" edge="1">
          <mxGeometry relative="1" as="geometry" />
        </mxCell>
        <mxCell id="moqSpHkvBmcnVh3FU-qE-36" value="" style="sketch=0;points=[[0,0,0],[0.25,0,0],[0.5,0,0],[0.75,0,0],[1,0,0],[0,1,0],[0.25,1,0],[0.5,1,0],[0.75,1,0],[1,1,0],[0,0.25,0],[0,0.5,0],[0,0.75,0],[1,0.25,0],[1,0.5,0],[1,0.75,0]];outlineConnect=0;fontColor=#232F3E;fillColor=#ED7100;strokeColor=#ffffff;dashed=0;verticalLabelPosition=bottom;verticalAlign=top;align=center;html=1;fontSize=12;fontStyle=0;aspect=fixed;shape=mxgraph.aws4.resourceIcon;resIcon=mxgraph.aws4.fargate;" parent="1" vertex="1">
          <mxGeometry x="688" y="468" width="74" height="74" as="geometry" />
        </mxCell>
        <mxCell id="moqSpHkvBmcnVh3FU-qE-37" value="" style="edgeStyle=orthogonalEdgeStyle;rounded=0;orthogonalLoop=1;jettySize=auto;html=1;entryX=0;entryY=0.5;entryDx=0;entryDy=0;entryPerimeter=0;" parent="1" source="moqSpHkvBmcnVh3FU-qE-38" target="moqSpHkvBmcnVh3FU-qE-36" edge="1">
          <mxGeometry relative="1" as="geometry">
            <mxPoint x="644" y="505" as="targetPoint" />
          </mxGeometry>
        </mxCell>
        <mxCell id="moqSpHkvBmcnVh3FU-qE-38" value="" style="sketch=0;outlineConnect=0;fontColor=#232F3E;gradientColor=none;fillColor=#ED7100;strokeColor=none;dashed=0;verticalLabelPosition=bottom;verticalAlign=top;align=center;html=1;fontSize=12;fontStyle=0;aspect=fixed;pointerEvents=1;shape=mxgraph.aws4.ecs_service;" parent="1" vertex="1">
          <mxGeometry x="536" y="481" width="39" height="48" as="geometry" />
        </mxCell>
        <mxCell id="moqSpHkvBmcnVh3FU-qE-39" value="タスク定義ファイル" style="text;html=1;align=center;verticalAlign=middle;resizable=0;points=[];autosize=1;strokeColor=none;fillColor=none;" parent="1" vertex="1">
          <mxGeometry x="347.5" y="542" width="130" height="30" as="geometry" />
        </mxCell>
        <mxCell id="moqSpHkvBmcnVh3FU-qE-40" value="サービス" style="text;html=1;align=center;verticalAlign=middle;resizable=0;points=[];autosize=1;strokeColor=none;fillColor=none;" parent="1" vertex="1">
          <mxGeometry x="526" y="544" width="70" height="30" as="geometry" />
        </mxCell>
        <mxCell id="moqSpHkvBmcnVh3FU-qE-41" value="Fargate" style="text;html=1;align=center;verticalAlign=middle;resizable=0;points=[];autosize=1;strokeColor=none;fillColor=none;" parent="1" vertex="1">
          <mxGeometry x="697" y="544" width="60" height="30" as="geometry" />
        </mxCell>
        <mxCell id="moqSpHkvBmcnVh3FU-qE-42" value="" style="outlineConnect=0;dashed=0;verticalLabelPosition=bottom;verticalAlign=top;align=center;html=1;shape=mxgraph.aws3.internet;fillColor=#D2D3D3;gradientColor=none;" parent="1" vertex="1">
          <mxGeometry x="864.25" y="466" width="79.5" height="79.5" as="geometry" />
        </mxCell>
        <mxCell id="moqSpHkvBmcnVh3FU-qE-43" value="インターネット" style="text;html=1;align=center;verticalAlign=middle;resizable=0;points=[];autosize=1;strokeColor=none;fillColor=none;" parent="1" vertex="1">
          <mxGeometry x="849" y="552" width="110" height="30" as="geometry" />
        </mxCell>
        <mxCell id="moqSpHkvBmcnVh3FU-qE-44" value="" style="edgeStyle=orthogonalEdgeStyle;rounded=0;orthogonalLoop=1;jettySize=auto;html=1;" parent="1" source="moqSpHkvBmcnVh3FU-qE-25" target="moqSpHkvBmcnVh3FU-qE-34" edge="1">
          <mxGeometry relative="1" as="geometry" />
        </mxCell>
        <mxCell id="moqSpHkvBmcnVh3FU-qE-45" value="&lt;font style=&quot;font-size: 24px;&quot;&gt;&lt;b&gt;1&lt;/b&gt;&lt;/font&gt;" style="text;html=1;align=center;verticalAlign=middle;resizable=0;points=[];autosize=1;strokeColor=none;fillColor=none;" parent="1" vertex="1">
          <mxGeometry x="161" y="464" width="40" height="40" as="geometry" />
        </mxCell>
        <mxCell id="moqSpHkvBmcnVh3FU-qE-46" value="&lt;span style=&quot;font-size: 24px;&quot;&gt;&lt;b&gt;2&lt;/b&gt;&lt;/span&gt;" style="text;html=1;align=center;verticalAlign=middle;resizable=0;points=[];autosize=1;strokeColor=none;fillColor=none;" parent="1" vertex="1">
          <mxGeometry x="327" y="466" width="40" height="40" as="geometry" />
        </mxCell>
        <mxCell id="moqSpHkvBmcnVh3FU-qE-47" value="&lt;span style=&quot;font-size: 24px;&quot;&gt;&lt;b&gt;3&lt;/b&gt;&lt;/span&gt;" style="text;html=1;align=center;verticalAlign=middle;resizable=0;points=[];autosize=1;strokeColor=none;fillColor=none;" parent="1" vertex="1">
          <mxGeometry x="450" y="466" width="40" height="40" as="geometry" />
        </mxCell>
        <mxCell id="moqSpHkvBmcnVh3FU-qE-48" value="&lt;span style=&quot;font-size: 24px;&quot;&gt;&lt;b&gt;4&lt;/b&gt;&lt;/span&gt;" style="text;html=1;align=center;verticalAlign=middle;resizable=0;points=[];autosize=1;strokeColor=none;fillColor=none;" parent="1" vertex="1">
          <mxGeometry x="620" y="464" width="40" height="40" as="geometry" />
        </mxCell>
        <mxCell id="moqSpHkvBmcnVh3FU-qE-49" value="&lt;span style=&quot;font-size: 24px;&quot;&gt;&lt;b&gt;5&lt;/b&gt;&lt;/span&gt;" style="text;html=1;align=center;verticalAlign=middle;resizable=0;points=[];autosize=1;strokeColor=none;fillColor=none;" parent="1" vertex="1">
          <mxGeometry x="792.5" y="464" width="40" height="40" as="geometry" />
        </mxCell>
        <mxCell id="moqSpHkvBmcnVh3FU-qE-50" value="クラスター" style="swimlane;" parent="1" vertex="1">
          <mxGeometry x="490" y="442" width="130" height="130" as="geometry" />
        </mxCell>
        <mxCell id="moqSpHkvBmcnVh3FU-qE-51" value="" style="edgeStyle=orthogonalEdgeStyle;rounded=0;orthogonalLoop=1;jettySize=auto;html=1;" parent="1" source="moqSpHkvBmcnVh3FU-qE-52" target="moqSpHkvBmcnVh3FU-qE-55" edge="1">
          <mxGeometry relative="1" as="geometry" />
        </mxCell>
        <mxCell id="moqSpHkvBmcnVh3FU-qE-52" value="" style="sketch=0;outlineConnect=0;fontColor=#232F3E;gradientColor=none;fillColor=#232F3D;strokeColor=none;dashed=0;verticalLabelPosition=bottom;verticalAlign=top;align=center;html=1;fontSize=12;fontStyle=0;aspect=fixed;pointerEvents=1;shape=mxgraph.aws4.client;" parent="1" vertex="1">
          <mxGeometry x="42.5" y="842" width="78" height="76" as="geometry" />
        </mxCell>
        <mxCell id="moqSpHkvBmcnVh3FU-qE-53" value="自分のPC" style="text;html=1;align=center;verticalAlign=middle;resizable=0;points=[];autosize=1;strokeColor=none;fillColor=none;" parent="1" vertex="1">
          <mxGeometry x="40" y="922.5" width="80" height="30" as="geometry" />
        </mxCell>
        <mxCell id="moqSpHkvBmcnVh3FU-qE-54" value="" style="edgeStyle=orthogonalEdgeStyle;rounded=0;orthogonalLoop=1;jettySize=auto;html=1;entryX=0;entryY=0.5;entryDx=0;entryDy=0;entryPerimeter=0;" parent="1" source="moqSpHkvBmcnVh3FU-qE-55" target="moqSpHkvBmcnVh3FU-qE-58" edge="1">
          <mxGeometry relative="1" as="geometry" />
        </mxCell>
        <mxCell id="moqSpHkvBmcnVh3FU-qE-55" value="" style="sketch=0;points=[[0,0,0],[0.25,0,0],[0.5,0,0],[0.75,0,0],[1,0,0],[0,1,0],[0.25,1,0],[0.5,1,0],[0.75,1,0],[1,1,0],[0,0.25,0],[0,0.5,0],[0,0.75,0],[1,0.25,0],[1,0.5,0],[1,0.75,0]];outlineConnect=0;fontColor=#232F3E;fillColor=#C925D1;strokeColor=#ffffff;dashed=0;verticalLabelPosition=bottom;verticalAlign=top;align=center;html=1;fontSize=12;fontStyle=0;aspect=fixed;shape=mxgraph.aws4.resourceIcon;resIcon=mxgraph.aws4.codecommit;" parent="1" vertex="1">
          <mxGeometry x="202" y="841" width="78" height="78" as="geometry" />
        </mxCell>
        <mxCell id="moqSpHkvBmcnVh3FU-qE-56" value="CodeCommit" style="text;html=1;align=center;verticalAlign=middle;resizable=0;points=[];autosize=1;strokeColor=none;fillColor=none;" parent="1" vertex="1">
          <mxGeometry x="197.5" y="920" width="90" height="30" as="geometry" />
        </mxCell>
        <mxCell id="moqSpHkvBmcnVh3FU-qE-57" value="" style="edgeStyle=orthogonalEdgeStyle;rounded=0;orthogonalLoop=1;jettySize=auto;html=1;" parent="1" source="moqSpHkvBmcnVh3FU-qE-58" target="moqSpHkvBmcnVh3FU-qE-72" edge="1">
          <mxGeometry relative="1" as="geometry" />
        </mxCell>
        <mxCell id="moqSpHkvBmcnVh3FU-qE-58" value="" style="sketch=0;points=[[0,0,0],[0.25,0,0],[0.5,0,0],[0.75,0,0],[1,0,0],[0,1,0],[0.25,1,0],[0.5,1,0],[0.75,1,0],[1,1,0],[0,0.25,0],[0,0.5,0],[0,0.75,0],[1,0.25,0],[1,0.5,0],[1,0.75,0]];outlineConnect=0;fontColor=#232F3E;fillColor=#C925D1;strokeColor=#ffffff;dashed=0;verticalLabelPosition=bottom;verticalAlign=top;align=center;html=1;fontSize=12;fontStyle=0;aspect=fixed;shape=mxgraph.aws4.resourceIcon;resIcon=mxgraph.aws4.codebuild;" parent="1" vertex="1">
          <mxGeometry x="369" y="841" width="78" height="78" as="geometry" />
        </mxCell>
        <mxCell id="moqSpHkvBmcnVh3FU-qE-59" value="CodeBuild" style="text;html=1;align=center;verticalAlign=middle;resizable=0;points=[];autosize=1;strokeColor=none;fillColor=none;" parent="1" vertex="1">
          <mxGeometry x="368" y="920" width="80" height="30" as="geometry" />
        </mxCell>
        <mxCell id="moqSpHkvBmcnVh3FU-qE-72" value="" style="sketch=0;points=[[0,0,0],[0.25,0,0],[0.5,0,0],[0.75,0,0],[1,0,0],[0,1,0],[0.25,1,0],[0.5,1,0],[0.75,1,0],[1,1,0],[0,0.25,0],[0,0.5,0],[0,0.75,0],[1,0.25,0],[1,0.5,0],[1,0.75,0]];outlineConnect=0;fontColor=#232F3E;fillColor=#ED7100;strokeColor=#ffffff;dashed=0;verticalLabelPosition=bottom;verticalAlign=top;align=center;html=1;fontSize=12;fontStyle=0;aspect=fixed;shape=mxgraph.aws4.resourceIcon;resIcon=mxgraph.aws4.ecr;" parent="1" vertex="1">
          <mxGeometry x="538" y="841" width="78" height="78" as="geometry" />
        </mxCell>
        <mxCell id="moqSpHkvBmcnVh3FU-qE-73" value="ECR" style="text;html=1;align=center;verticalAlign=middle;resizable=0;points=[];autosize=1;strokeColor=none;fillColor=none;" parent="1" vertex="1">
          <mxGeometry x="554" y="919" width="50" height="30" as="geometry" />
        </mxCell>
        <mxCell id="moqSpHkvBmcnVh3FU-qE-75" value="&lt;font style=&quot;font-size: 24px;&quot;&gt;&lt;b&gt;1&lt;/b&gt;&lt;/font&gt;" style="text;html=1;align=center;verticalAlign=middle;resizable=0;points=[];autosize=1;strokeColor=none;fillColor=none;" parent="1" vertex="1">
          <mxGeometry x="137" y="842" width="40" height="40" as="geometry" />
        </mxCell>
        <mxCell id="moqSpHkvBmcnVh3FU-qE-76" value="&lt;span style=&quot;font-size: 24px;&quot;&gt;&lt;b&gt;2&lt;/b&gt;&lt;/span&gt;" style="text;html=1;align=center;verticalAlign=middle;resizable=0;points=[];autosize=1;strokeColor=none;fillColor=none;" parent="1" vertex="1">
          <mxGeometry x="299" y="840" width="40" height="40" as="geometry" />
        </mxCell>
        <mxCell id="moqSpHkvBmcnVh3FU-qE-84" value="&lt;span style=&quot;font-size: 24px;&quot;&gt;&lt;b&gt;3&lt;/b&gt;&lt;/span&gt;" style="text;html=1;align=center;verticalAlign=middle;resizable=0;points=[];autosize=1;strokeColor=none;fillColor=none;" parent="1" vertex="1">
          <mxGeometry x="473" y="840" width="40" height="40" as="geometry" />
        </mxCell>
        <mxCell id="yiP97yoj7BctglXuVpyu-1" value="" style="fillColor=#EFF0F3;strokeColor=none;dashed=0;verticalAlign=top;fontStyle=0;fontColor=#232F3D;whiteSpace=wrap;html=1;" vertex="1" parent="1">
          <mxGeometry x="162.5" y="1129" width="1033" height="340" as="geometry" />
        </mxCell>
        <mxCell id="yiP97yoj7BctglXuVpyu-2" value="" style="sketch=0;points=[[0,0,0],[0.25,0,0],[0.5,0,0],[0.75,0,0],[1,0,0],[0,1,0],[0.25,1,0],[0.5,1,0],[0.75,1,0],[1,1,0],[0,0.25,0],[0,0.5,0],[0,0.75,0],[1,0.25,0],[1,0.5,0],[1,0.75,0]];outlineConnect=0;fontColor=#232F3E;fillColor=#C925D1;strokeColor=#ffffff;dashed=0;verticalLabelPosition=bottom;verticalAlign=top;align=center;html=1;fontSize=12;fontStyle=0;aspect=fixed;shape=mxgraph.aws4.resourceIcon;resIcon=mxgraph.aws4.codepipeline;" vertex="1" parent="1">
          <mxGeometry x="122.5" y="1099" width="78" height="78" as="geometry" />
        </mxCell>
        <mxCell id="yiP97yoj7BctglXuVpyu-3" value="CodePipeline" style="text;html=1;align=center;verticalAlign=middle;resizable=0;points=[];autosize=1;strokeColor=none;fillColor=none;" vertex="1" parent="1">
          <mxGeometry x="116.5" y="1177" width="90" height="30" as="geometry" />
        </mxCell>
        <mxCell id="yiP97yoj7BctglXuVpyu-7" value="" style="edgeStyle=orthogonalEdgeStyle;rounded=0;orthogonalLoop=1;jettySize=auto;html=1;entryX=0;entryY=0.5;entryDx=0;entryDy=0;entryPerimeter=0;" edge="1" parent="1" source="yiP97yoj7BctglXuVpyu-8">
          <mxGeometry relative="1" as="geometry">
            <mxPoint x="371.5" y="1299" as="targetPoint" />
          </mxGeometry>
        </mxCell>
        <mxCell id="yiP97yoj7BctglXuVpyu-8" value="" style="sketch=0;points=[[0,0,0],[0.25,0,0],[0.5,0,0],[0.75,0,0],[1,0,0],[0,1,0],[0.25,1,0],[0.5,1,0],[0.75,1,0],[1,1,0],[0,0.25,0],[0,0.5,0],[0,0.75,0],[1,0.25,0],[1,0.5,0],[1,0.75,0]];outlineConnect=0;fontColor=#232F3E;fillColor=#C925D1;strokeColor=#ffffff;dashed=0;verticalLabelPosition=bottom;verticalAlign=top;align=center;html=1;fontSize=12;fontStyle=0;aspect=fixed;shape=mxgraph.aws4.resourceIcon;resIcon=mxgraph.aws4.codecommit;" vertex="1" parent="1">
          <mxGeometry x="204.5" y="1260" width="78" height="78" as="geometry" />
        </mxCell>
        <mxCell id="yiP97yoj7BctglXuVpyu-9" value="CodeCommit" style="text;html=1;align=center;verticalAlign=middle;resizable=0;points=[];autosize=1;strokeColor=none;fillColor=none;" vertex="1" parent="1">
          <mxGeometry x="200" y="1339" width="90" height="30" as="geometry" />
        </mxCell>
        <mxCell id="yiP97yoj7BctglXuVpyu-10" value="" style="edgeStyle=orthogonalEdgeStyle;rounded=0;orthogonalLoop=1;jettySize=auto;html=1;" edge="1" parent="1">
          <mxGeometry relative="1" as="geometry">
            <mxPoint x="449.4999999999998" y="1299" as="sourcePoint" />
            <mxPoint x="540.5" y="1299.058823529412" as="targetPoint" />
          </mxGeometry>
        </mxCell>
        <mxCell id="yiP97yoj7BctglXuVpyu-12" value="CodeDeploy" style="text;html=1;align=center;verticalAlign=middle;resizable=0;points=[];autosize=1;strokeColor=none;fillColor=none;" vertex="1" parent="1">
          <mxGeometry x="365.5" y="1339" width="90" height="30" as="geometry" />
        </mxCell>
        <mxCell id="yiP97yoj7BctglXuVpyu-37" value="" style="sketch=0;points=[[0,0,0],[0.25,0,0],[0.5,0,0],[0.75,0,0],[1,0,0],[0,1,0],[0.25,1,0],[0.5,1,0],[0.75,1,0],[1,1,0],[0,0.25,0],[0,0.5,0],[0,0.75,0],[1,0.25,0],[1,0.5,0],[1,0.75,0]];outlineConnect=0;fontColor=#232F3E;fillColor=#C925D1;strokeColor=#ffffff;dashed=0;verticalLabelPosition=bottom;verticalAlign=top;align=center;html=1;fontSize=12;fontStyle=0;aspect=fixed;shape=mxgraph.aws4.resourceIcon;resIcon=mxgraph.aws4.codedeploy;" vertex="1" parent="1">
          <mxGeometry x="369" y="1258" width="78" height="78" as="geometry" />
        </mxCell>
        <mxCell id="yiP97yoj7BctglXuVpyu-83" value="" style="rhombus;whiteSpace=wrap;html=1;" vertex="1" parent="1">
          <mxGeometry x="170" y="1580" width="80" height="80" as="geometry" />
        </mxCell>
        <mxCell id="yiP97yoj7BctglXuVpyu-84" value="インターネット" style="text;html=1;align=center;verticalAlign=middle;resizable=0;points=[];autosize=1;strokeColor=none;fillColor=none;" vertex="1" parent="1">
          <mxGeometry x="1055" y="1647" width="110" height="30" as="geometry" />
        </mxCell>
        <mxCell id="yiP97yoj7BctglXuVpyu-85" value="" style="outlineConnect=0;dashed=0;verticalLabelPosition=bottom;verticalAlign=top;align=center;html=1;shape=mxgraph.aws3.internet;fillColor=#D2D3D3;gradientColor=none;" vertex="1" parent="1">
          <mxGeometry x="1247.5" y="1724" width="79.5" height="79.5" as="geometry" />
        </mxCell>
        <mxCell id="yiP97yoj7BctglXuVpyu-86" value="" style="edgeStyle=orthogonalEdgeStyle;rounded=0;orthogonalLoop=1;jettySize=auto;html=1;" edge="1" parent="1" source="yiP97yoj7BctglXuVpyu-87" target="yiP97yoj7BctglXuVpyu-91">
          <mxGeometry relative="1" as="geometry" />
        </mxCell>
        <mxCell id="yiP97yoj7BctglXuVpyu-87" value="" style="sketch=0;outlineConnect=0;fontColor=#232F3E;gradientColor=none;fillColor=#ED7100;strokeColor=none;dashed=0;verticalLabelPosition=bottom;verticalAlign=top;align=center;html=1;fontSize=12;fontStyle=0;aspect=fixed;pointerEvents=1;shape=mxgraph.aws4.ecs_task;" vertex="1" parent="1">
          <mxGeometry x="755" y="1738" width="37" height="48" as="geometry" />
        </mxCell>
        <mxCell id="yiP97yoj7BctglXuVpyu-88" value="" style="edgeStyle=orthogonalEdgeStyle;rounded=0;orthogonalLoop=1;jettySize=auto;html=1;entryX=0;entryY=0.47;entryDx=0;entryDy=0;entryPerimeter=0;" edge="1" parent="1" source="yiP97yoj7BctglXuVpyu-89" target="yiP97yoj7BctglXuVpyu-85">
          <mxGeometry relative="1" as="geometry" />
        </mxCell>
        <mxCell id="yiP97yoj7BctglXuVpyu-89" value="" style="sketch=0;points=[[0,0,0],[0.25,0,0],[0.5,0,0],[0.75,0,0],[1,0,0],[0,1,0],[0.25,1,0],[0.5,1,0],[0.75,1,0],[1,1,0],[0,0.25,0],[0,0.5,0],[0,0.75,0],[1,0.25,0],[1,0.5,0],[1,0.75,0]];outlineConnect=0;fontColor=#232F3E;fillColor=#ED7100;strokeColor=#ffffff;dashed=0;verticalLabelPosition=bottom;verticalAlign=top;align=center;html=1;fontSize=12;fontStyle=0;aspect=fixed;shape=mxgraph.aws4.resourceIcon;resIcon=mxgraph.aws4.fargate;" vertex="1" parent="1">
          <mxGeometry x="1058.5" y="1725" width="74" height="74" as="geometry" />
        </mxCell>
        <mxCell id="yiP97yoj7BctglXuVpyu-90" value="" style="edgeStyle=orthogonalEdgeStyle;rounded=0;orthogonalLoop=1;jettySize=auto;html=1;" edge="1" parent="1" source="yiP97yoj7BctglXuVpyu-91" target="yiP97yoj7BctglXuVpyu-89">
          <mxGeometry relative="1" as="geometry" />
        </mxCell>
        <mxCell id="yiP97yoj7BctglXuVpyu-91" value="" style="sketch=0;outlineConnect=0;fontColor=#232F3E;gradientColor=none;fillColor=#ED7100;strokeColor=none;dashed=0;verticalLabelPosition=bottom;verticalAlign=top;align=center;html=1;fontSize=12;fontStyle=0;aspect=fixed;pointerEvents=1;shape=mxgraph.aws4.ecs_service;" vertex="1" parent="1">
          <mxGeometry x="897.5" y="1738" width="39" height="48" as="geometry" />
        </mxCell>
        <mxCell id="yiP97yoj7BctglXuVpyu-92" value="タスク定義ファイル" style="text;html=1;align=center;verticalAlign=middle;resizable=0;points=[];autosize=1;strokeColor=none;fillColor=none;" vertex="1" parent="1">
          <mxGeometry x="708.5" y="1791" width="130" height="30" as="geometry" />
        </mxCell>
        <mxCell id="yiP97yoj7BctglXuVpyu-93" value="Fargate" style="text;html=1;align=center;verticalAlign=middle;resizable=0;points=[];autosize=1;strokeColor=none;fillColor=none;" vertex="1" parent="1">
          <mxGeometry x="1067.5" y="1801" width="60" height="30" as="geometry" />
        </mxCell>
        <mxCell id="yiP97yoj7BctglXuVpyu-94" value="サービス" style="text;html=1;align=center;verticalAlign=middle;resizable=0;points=[];autosize=1;strokeColor=none;fillColor=none;" vertex="1" parent="1">
          <mxGeometry x="890" y="1786" width="70" height="30" as="geometry" />
        </mxCell>
        <mxCell id="yiP97yoj7BctglXuVpyu-95" value="" style="edgeStyle=orthogonalEdgeStyle;rounded=0;orthogonalLoop=1;jettySize=auto;html=1;" edge="1" parent="1" source="yiP97yoj7BctglXuVpyu-96" target="yiP97yoj7BctglXuVpyu-87">
          <mxGeometry relative="1" as="geometry" />
        </mxCell>
        <mxCell id="yiP97yoj7BctglXuVpyu-96" value="" style="sketch=0;points=[[0,0,0],[0.25,0,0],[0.5,0,0],[0.75,0,0],[1,0,0],[0,1,0],[0.25,1,0],[0.5,1,0],[0.75,1,0],[1,1,0],[0,0.25,0],[0,0.5,0],[0,0.75,0],[1,0.25,0],[1,0.5,0],[1,0.75,0]];outlineConnect=0;fontColor=#232F3E;fillColor=#ED7100;strokeColor=#ffffff;dashed=0;verticalLabelPosition=bottom;verticalAlign=top;align=center;html=1;fontSize=12;fontStyle=0;aspect=fixed;shape=mxgraph.aws4.resourceIcon;resIcon=mxgraph.aws4.ecr;" vertex="1" parent="1">
          <mxGeometry x="562.5" y="1723" width="78" height="78" as="geometry" />
        </mxCell>
        <mxCell id="yiP97yoj7BctglXuVpyu-97" value="ECR" style="text;html=1;align=center;verticalAlign=middle;resizable=0;points=[];autosize=1;strokeColor=none;fillColor=none;" vertex="1" parent="1">
          <mxGeometry x="578.5" y="1801" width="50" height="30" as="geometry" />
        </mxCell>
        <mxCell id="yiP97yoj7BctglXuVpyu-98" value="クラスター" style="swimlane;" vertex="1" parent="1">
          <mxGeometry x="860" y="1697" width="130" height="130" as="geometry" />
        </mxCell>
        <mxCell id="yiP97yoj7BctglXuVpyu-99" value="&lt;span style=&quot;font-size: 24px;&quot;&gt;&lt;b&gt;4&lt;/b&gt;&lt;/span&gt;" style="text;html=1;align=center;verticalAlign=middle;resizable=0;points=[];autosize=1;strokeColor=none;fillColor=none;" vertex="1" parent="1">
          <mxGeometry x="681.5" y="1723" width="40" height="40" as="geometry" />
        </mxCell>
        <mxCell id="yiP97yoj7BctglXuVpyu-100" value="&lt;span style=&quot;font-size: 24px;&quot;&gt;&lt;b&gt;5&lt;/b&gt;&lt;/span&gt;" style="text;html=1;align=center;verticalAlign=middle;resizable=0;points=[];autosize=1;strokeColor=none;fillColor=none;" vertex="1" parent="1">
          <mxGeometry x="820" y="1723" width="40" height="40" as="geometry" />
        </mxCell>
        <mxCell id="yiP97yoj7BctglXuVpyu-101" value="&lt;span style=&quot;font-size: 24px;&quot;&gt;&lt;b&gt;6&lt;/b&gt;&lt;/span&gt;" style="text;html=1;align=center;verticalAlign=middle;resizable=0;points=[];autosize=1;strokeColor=none;fillColor=none;" vertex="1" parent="1">
          <mxGeometry x="977.5" y="1725" width="40" height="40" as="geometry" />
        </mxCell>
        <mxCell id="yiP97yoj7BctglXuVpyu-102" value="&lt;span style=&quot;font-size: 24px;&quot;&gt;&lt;b&gt;7&lt;/b&gt;&lt;/span&gt;" style="text;html=1;align=center;verticalAlign=middle;resizable=0;points=[];autosize=1;strokeColor=none;fillColor=none;" vertex="1" parent="1">
          <mxGeometry x="1164.5" y="1723" width="40" height="40" as="geometry" />
        </mxCell>
        <mxCell id="yiP97yoj7BctglXuVpyu-103" value="" style="swimlane;startSize=0;" vertex="1" parent="1">
          <mxGeometry x="703" y="1647" width="481.5" height="230" as="geometry" />
        </mxCell>
        <mxCell id="yiP97yoj7BctglXuVpyu-104" value="ECS" style="text;html=1;align=center;verticalAlign=middle;resizable=0;points=[];autosize=1;strokeColor=none;fillColor=none;" vertex="1" parent="yiP97yoj7BctglXuVpyu-103">
          <mxGeometry x="-26.5" y="45" width="50" height="30" as="geometry" />
        </mxCell>
        <mxCell id="yiP97yoj7BctglXuVpyu-105" value="" style="sketch=0;points=[[0,0,0],[0.25,0,0],[0.5,0,0],[0.75,0,0],[1,0,0],[0,1,0],[0.25,1,0],[0.5,1,0],[0.75,1,0],[1,1,0],[0,0.25,0],[0,0.5,0],[0,0.75,0],[1,0.25,0],[1,0.5,0],[1,0.75,0]];outlineConnect=0;fontColor=#232F3E;fillColor=#ED7100;strokeColor=#ffffff;dashed=0;verticalLabelPosition=bottom;verticalAlign=top;align=center;html=1;fontSize=12;fontStyle=0;aspect=fixed;shape=mxgraph.aws4.resourceIcon;resIcon=mxgraph.aws4.ecs;" vertex="1" parent="1">
          <mxGeometry x="662.5" y="1616" width="78" height="78" as="geometry" />
        </mxCell>
      </root>
    </mxGraphModel>
  </diagram>
</mxfile>
